# xmcd
# Copyright (C) 1995-1998 Ti Kan
#
# Track frame offsets:
#       150
#       5071
#       21757
#       38807
#       53244
#       75149
#       99734
#       118187
#       135431
#       150387
#       170325
#       184652
#       205092
#
# Disc length: 2884 seconds
#
# Revision: 0
# Processed by: cddbd v1.5.2PL0 Copyright (c) Steve Scherf et al.
# Submitted via: CD-Transfer v1.0
#
DISCID=990b420d
DTITLE=Very Best, The - Mwamwaya, Karlberg, Tron
DYEAR=09
DGENRE=
TTITLE0=Yalira
TTITLE1=Chalo
TTITLE2=Warm Heart Of Africa
TTITLE3=Mwazi
TTITLE4=Nsokoto
TTITLE5=Angonde
TTITLE6=Julia
TTITLE7=Mfumu
TTITLE8=Ntdende Uli
TTITLE9=Rain Dance
TTITLE10=Kamphopo
TTITLE11=Kada Manja
TTITLE12=Zam'dziko
EXTD=
EXTT0=
EXTT1=
EXTT2=
EXTT3=
EXTT4=
EXTT5=
EXTT6=
EXTT7=
EXTT8=
EXTT9=
EXTT10=
EXTT11=
EXTT12=
PLAYORDER=
